<?xml version="1.0" standalone="no"?>
<!DOCTYPE svg PUBLIC "-//W3C//DTD SVG 20010904//EN"
 "http://www.w3.org/TR/2001/REC-SVG-20010904/DTD/svg10.dtd">
<svg version="1.0" xmlns="http://www.w3.org/2000/svg"
 width="900.000000pt" height="512.000000pt" viewBox="0 0 900.000000 512.000000"
 preserveAspectRatio="xMidYMid meet">

<g transform="translate(0.000000,512.000000) scale(0.100000,-0.100000)"
fill="#000000" stroke="none">
<path d="M6210 4597 c-322 -286 -988 -878 -1480 -1316 -492 -437 -938 -838
-990 -891 -258 -260 -433 -557 -544 -923 l-33 -107 -274 -287 c-151 -158 -338
-354 -416 -435 -150 -157 -207 -237 -250 -355 -13 -36 -22 -67 -21 -68 2 -2
254 195 561 436 l557 440 113 -44 c309 -122 524 -164 785 -154 178 6 301 35
422 97 44 23 80 45 80 49 0 3 -21 17 -47 31 -106 56 -244 213 -303 345 -27 59
-53 145 -45 145 1 0 34 -12 71 -26 139 -53 701 -214 746 -214 29 0 195 135
324 264 247 248 441 523 639 911 82 161 180 384 172 391 -2 3 -24 0 -48 -5
-140 -30 -288 -21 -443 29 -121 39 -330 162 -295 174 13 5 85 21 690 152 l266
58 26 61 c136 315 227 705 286 1235 22 193 45 503 40 518 -2 6 -267 -224 -589
-511z"/>
<path d="M4365 605 c-44 -8 -190 -33 -325 -54 -135 -22 -506 -84 -826 -137
l-581 -97 -146 -116 c-81 -64 -143 -117 -138 -119 5 -2 318 49 697 112 1064
178 1422 236 1465 236 43 0 109 -23 109 -38 0 -5 -12 -36 -26 -68 -77 -174 54
-324 284 -324 30 0 260 36 511 81 1184 209 1122 197 1147 220 31 29 39 71 20
108 -34 66 -28 66 -471 -14 -473 -85 -1021 -182 -1107 -195 -92 -15 -183 -9
-205 12 -14 15 -13 21 11 73 80 175 -31 319 -256 330 -49 3 -116 -2 -163 -10z"/>
</g>
</svg>
